<?xml version="1.0" encoding="UTF-8" standalone="no"?>
<!-- Generator: Adobe Illustrator 27.0.1, SVG Export Plug-In . SVG Version: 6.00 Build 0)  -->

<svg
   version="1.1"
   x="0px"
   y="0px"
   viewBox="0 0 120 120"
   xml:space="preserve"
   id="svg1868"
   width="120"
   height="120"
   xmlns="http://www.w3.org/2000/svg"
   xmlns:svg="http://www.w3.org/2000/svg"><defs
   id="defs1872" />&#10;<style
   type="text/css"
   id="style938">&#10;	.st0{fill:#FFFFFF;}&#10;	.st1{display:none;}&#10;	.st2{display:inline;}&#10;	.st3{fill:#8ABADE;}&#10;	.st4{fill:#AA778A;}&#10;	.st5{fill:#EE8888;}&#10;	.st6{fill:#F8B172;}&#10;	.st7{fill:#BBF19A;}&#10;	.st8{fill:#EFFAB5;}&#10;	.st9{fill:#281C18;}&#10;	.st10{fill:#733B2D;}&#10;	.st11{fill:#FBCDCD;}&#10;	.st12{fill:#A0CDF9;}&#10;	.st13{fill:#6D6D71;}&#10;	.st14{fill:#27282C;}&#10;</style>&#10;<g
   id="Background_color"
   transform="translate(-46.30439,-0.43565784)">&#10;	<rect
   x="-3.8608027"
   class="st0"
   width="219.84608"
   height="128.58871"
   id="rect940"
   y="-5.725812"
   style="stroke-width:1.05167" />&#10;</g>&#10;<g
   id="Triangle_patterns"
   transform="translate(-46.74215,-1.8671125)">&#10;	<g
   id="Mega_triangles"
   class="st1">&#10;		<g
   class="st2"
   id="g945">&#10;			<polygon
   class="st3"
   points="-2.5,2 -2.5,22 17.5,12 "
   id="polygon943" />&#10;		</g>&#10;		<g
   class="st2"
   id="g949">&#10;			<polygon
   class="st4"
   points="17.5,-10 17.5,10 -2.5,0 "
   id="polygon947" />&#10;		</g>&#10;		<g
   class="st2"
   id="g953">&#10;			<polygon
   class="st3"
   points="-2.5,26 -2.5,46 17.5,36 "
   id="polygon951" />&#10;		</g>&#10;		<g
   class="st2"
   id="g957">&#10;			<polygon
   class="st3"
   points="17.5,14 17.5,34 -2.5,24 "
   id="polygon955" />&#10;		</g>&#10;		<g
   class="st2"
   id="g961">&#10;			<polygon
   class="st5"
   points="-2.5,50 -2.5,70 17.5,60 "
   id="polygon959" />&#10;		</g>&#10;		<g
   class="st2"
   id="g965">&#10;			<polygon
   class="st6"
   points="17.5,38 17.5,58 -2.5,48 "
   id="polygon963" />&#10;		</g>&#10;		<g
   class="st2"
   id="g969">&#10;			<polygon
   class="st5"
   points="-2.5,74 -2.5,94 17.5,84 "
   id="polygon967" />&#10;		</g>&#10;		<g
   class="st2"
   id="g973">&#10;			<polygon
   class="st5"
   points="17.5,62 17.5,82 -2.5,72 "
   id="polygon971" />&#10;		</g>&#10;		<g
   class="st2"
   id="g977">&#10;			<polygon
   class="st7"
   points="-2.5,98 -2.5,118 17.5,108 "
   id="polygon975" />&#10;		</g>&#10;		<g
   class="st2"
   id="g981">&#10;			<polygon
   class="st8"
   points="17.5,86 17.5,106 -2.5,96 "
   id="polygon979" />&#10;		</g>&#10;		<g
   class="st2"
   id="g985">&#10;			<polygon
   class="st7"
   points="17.5,110 17.5,130 -2.5,120 "
   id="polygon983" />&#10;		</g>&#10;		<g
   class="st2"
   id="g989">&#10;			<polygon
   class="st4"
   points="19.5,-10 19.5,10 39.5,0 "
   id="polygon987" />&#10;		</g>&#10;		<g
   class="st2"
   id="g993">&#10;			<polygon
   class="st3"
   points="19.5,14 19.5,34 39.5,24 "
   id="polygon991" />&#10;		</g>&#10;		<g
   class="st2"
   id="g997">&#10;			<polygon
   class="st4"
   points="39.5,2 39.5,22 19.5,12 "
   id="polygon995" />&#10;		</g>&#10;		<g
   class="st2"
   id="g1001">&#10;			<polygon
   class="st6"
   points="19.5,38 19.5,58 39.5,48 "
   id="polygon999" />&#10;		</g>&#10;		<g
   class="st2"
   id="g1005">&#10;			<polygon
   class="st6"
   points="39.5,26 39.5,46 19.5,36 "
   id="polygon1003" />&#10;		</g>&#10;		<g
   class="st2"
   id="g1009">&#10;			<polygon
   class="st5"
   points="19.5,62 19.5,82 39.5,72 "
   id="polygon1007" />&#10;		</g>&#10;		<g
   class="st2"
   id="g1013">&#10;			<polygon
   class="st6"
   points="39.5,50 39.5,70 19.5,60 "
   id="polygon1011" />&#10;		</g>&#10;		<g
   class="st2"
   id="g1017">&#10;			<polygon
   class="st8"
   points="19.5,86 19.5,106 39.5,96 "
   id="polygon1015" />&#10;		</g>&#10;		<g
   class="st2"
   id="g1021">&#10;			<polygon
   class="st8"
   points="39.5,74 39.5,94 19.5,84 "
   id="polygon1019" />&#10;		</g>&#10;		<g
   class="st2"
   id="g1025">&#10;			<polygon
   class="st7"
   points="19.5,110 19.5,130 39.5,120 "
   id="polygon1023" />&#10;		</g>&#10;		<g
   class="st2"
   id="g1029">&#10;			<polygon
   class="st8"
   points="39.5,98 39.5,118 19.5,108 "
   id="polygon1027" />&#10;		</g>&#10;		<g
   class="st2"
   id="g1033">&#10;			<polygon
   class="st8"
   points="41.5,2 41.5,22 61.5,12 "
   id="polygon1031" />&#10;		</g>&#10;		<g
   class="st2"
   id="g1037">&#10;			<polygon
   class="st8"
   points="61.5,-10 61.5,10 41.5,0 "
   id="polygon1035" />&#10;		</g>&#10;		<g
   class="st2"
   id="g1041">&#10;			<polygon
   class="st7"
   points="41.5,26 41.5,46 61.5,36 "
   id="polygon1039" />&#10;		</g>&#10;		<g
   class="st2"
   id="g1045">&#10;			<polygon
   class="st5"
   points="61.5,14 61.5,34 41.5,24 "
   id="polygon1043" />&#10;		</g>&#10;		<g
   class="st2"
   id="g1049">&#10;			<polygon
   class="st7"
   points="41.5,50 41.5,70 61.5,60 "
   id="polygon1047" />&#10;		</g>&#10;		<g
   class="st2"
   id="g1053">&#10;			<polygon
   class="st7"
   points="61.5,38 61.5,58 41.5,48 "
   id="polygon1051" />&#10;		</g>&#10;		<g
   class="st2"
   id="g1057">&#10;			<polygon
   class="st4"
   points="41.5,74 41.5,94 61.5,84 "
   id="polygon1055" />&#10;		</g>&#10;		<g
   class="st2"
   id="g1061">&#10;			<polygon
   class="st3"
   points="61.5,62 61.5,82 41.5,72 "
   id="polygon1059" />&#10;		</g>&#10;		<g
   class="st2"
   id="g1065">&#10;			<polygon
   class="st4"
   points="41.5,98 41.5,118 61.5,108 "
   id="polygon1063" />&#10;		</g>&#10;		<g
   class="st2"
   id="g1069">&#10;			<polygon
   class="st4"
   points="61.5,86 61.5,106 41.5,96 "
   id="polygon1067" />&#10;		</g>&#10;		<g
   class="st2"
   id="g1073">&#10;			<polygon
   class="st6"
   points="61.5,110 61.5,130 41.5,120 "
   id="polygon1071" />&#10;		</g>&#10;		<g
   class="st2"
   id="g1077">&#10;			<polygon
   class="st8"
   points="63.5,-10 63.5,10 83.5,0 "
   id="polygon1075" />&#10;		</g>&#10;		<g
   class="st2"
   id="g1081">&#10;			<polygon
   class="st5"
   points="63.5,14 63.5,34 83.5,24 "
   id="polygon1079" />&#10;		</g>&#10;		<g
   class="st2"
   id="g1085">&#10;			<polygon
   class="st5"
   points="83.5,2 83.5,22 63.5,12 "
   id="polygon1083" />&#10;		</g>&#10;		<g
   class="st2"
   id="g1089">&#10;			<polygon
   class="st7"
   points="63.5,38 63.5,58 83.5,48 "
   id="polygon1087" />&#10;		</g>&#10;		<g
   class="st2"
   id="g1093">&#10;			<polygon
   class="st5"
   points="83.5,26 83.5,46 63.5,36 "
   id="polygon1091" />&#10;		</g>&#10;		<g
   class="st2"
   id="g1097">&#10;			<polygon
   class="st3"
   points="63.5,62 63.5,82 83.5,72 "
   id="polygon1095" />&#10;		</g>&#10;		<g
   class="st2"
   id="g1101">&#10;			<polygon
   class="st3"
   points="83.5,50 83.5,70 63.5,60 "
   id="polygon1099" />&#10;		</g>&#10;		<g
   class="st2"
   id="g1105">&#10;			<polygon
   class="st4"
   points="63.5,86 63.5,106 83.5,96 "
   id="polygon1103" />&#10;		</g>&#10;		<g
   class="st2"
   id="g1109">&#10;			<polygon
   class="st3"
   points="83.5,74 83.5,94 63.5,84 "
   id="polygon1107" />&#10;		</g>&#10;		<g
   class="st2"
   id="g1113">&#10;			<polygon
   class="st6"
   points="63.5,110 63.5,130 83.5,120 "
   id="polygon1111" />&#10;		</g>&#10;		<g
   class="st2"
   id="g1117">&#10;			<polygon
   class="st6"
   points="83.5,98 83.5,118 63.5,108 "
   id="polygon1115" />&#10;		</g>&#10;		<g
   class="st2"
   id="g1121">&#10;			<polygon
   class="st8"
   points="85.5,2 85.5,22 105.5,12 "
   id="polygon1119" />&#10;		</g>&#10;		<g
   class="st2"
   id="g1125">&#10;			<polygon
   class="st3"
   points="105.5,-10 105.5,10 85.5,0 "
   id="polygon1123" />&#10;		</g>&#10;		<g
   class="st2"
   id="g1129">&#10;			<polygon
   class="st8"
   points="85.5,26 85.5,46 105.5,36 "
   id="polygon1127" />&#10;		</g>&#10;		<g
   class="st2"
   id="g1133">&#10;			<polygon
   class="st8"
   points="105.5,14 105.5,34 85.5,24 "
   id="polygon1131" />&#10;		</g>&#10;		<g
   class="st2"
   id="g1137">&#10;			<polygon
   class="st7"
   points="85.5,50 85.5,70 105.5,60 "
   id="polygon1135" />&#10;		</g>&#10;		<g
   class="st2"
   id="g1141">&#10;			<polygon
   class="st4"
   points="105.5,38 105.5,58 85.5,48 "
   id="polygon1139" />&#10;		</g>&#10;		<g
   class="st2"
   id="g1145">&#10;			<polygon
   class="st7"
   points="85.5,74 85.5,94 105.5,84 "
   id="polygon1143" />&#10;		</g>&#10;		<g
   class="st2"
   id="g1149">&#10;			<polygon
   class="st7"
   points="105.5,62 105.5,82 85.5,72 "
   id="polygon1147" />&#10;		</g>&#10;		<g
   class="st2"
   id="g1153">&#10;			<polygon
   class="st5"
   points="85.5,98 85.5,118 105.5,108 "
   id="polygon1151" />&#10;		</g>&#10;		<g
   class="st2"
   id="g1157">&#10;			<polygon
   class="st6"
   points="105.5,86 105.5,106 85.5,96 "
   id="polygon1155" />&#10;		</g>&#10;		<g
   class="st2"
   id="g1161">&#10;			<polygon
   class="st5"
   points="105.5,110 105.5,130 85.5,120 "
   id="polygon1159" />&#10;		</g>&#10;		<g
   class="st2"
   id="g1165">&#10;			<polygon
   class="st3"
   points="107.5,-10 107.5,10 127.5,0 "
   id="polygon1163" />&#10;		</g>&#10;		<g
   class="st2"
   id="g1169">&#10;			<polygon
   class="st8"
   points="107.5,14 107.5,34 127.5,24 "
   id="polygon1167" />&#10;		</g>&#10;		<g
   class="st2"
   id="g1173">&#10;			<polygon
   class="st3"
   points="127.5,2 127.5,22 107.5,12 "
   id="polygon1171" />&#10;		</g>&#10;		<g
   class="st2"
   id="g1177">&#10;			<polygon
   class="st4"
   points="107.5,38 107.5,58 127.5,48 "
   id="polygon1175" />&#10;		</g>&#10;		<g
   class="st2"
   id="g1181">&#10;			<polygon
   class="st4"
   points="127.5,26 127.5,46 107.5,36 "
   id="polygon1179" />&#10;		</g>&#10;		<g
   class="st2"
   id="g1185">&#10;			<polygon
   class="st7"
   points="107.5,62 107.5,82 127.5,72 "
   id="polygon1183" />&#10;		</g>&#10;		<g
   class="st2"
   id="g1189">&#10;			<polygon
   class="st4"
   points="127.5,50 127.5,70 107.5,60 "
   id="polygon1187" />&#10;		</g>&#10;		<g
   class="st2"
   id="g1193">&#10;			<polygon
   class="st6"
   points="107.5,86 107.5,106 127.5,96 "
   id="polygon1191" />&#10;		</g>&#10;		<g
   class="st2"
   id="g1197">&#10;			<polygon
   class="st6"
   points="127.5,74 127.5,94 107.5,84 "
   id="polygon1195" />&#10;		</g>&#10;		<g
   class="st2"
   id="g1201">&#10;			<polygon
   class="st5"
   points="107.5,110 107.5,130 127.5,120 "
   id="polygon1199" />&#10;		</g>&#10;		<g
   class="st2"
   id="g1205">&#10;			<polygon
   class="st6"
   points="127.5,98 127.5,118 107.5,108 "
   id="polygon1203" />&#10;		</g>&#10;		<g
   class="st2"
   id="g1209">&#10;			<polygon
   class="st7"
   points="129.5,2 129.5,22 149.5,12 "
   id="polygon1207" />&#10;		</g>&#10;		<g
   class="st2"
   id="g1213">&#10;			<polygon
   class="st7"
   points="149.5,-10 149.5,10 129.5,0 "
   id="polygon1211" />&#10;		</g>&#10;		<g
   class="st2"
   id="g1217">&#10;			<polygon
   class="st6"
   points="129.5,26 129.5,46 149.5,36 "
   id="polygon1215" />&#10;		</g>&#10;		<g
   class="st2"
   id="g1221">&#10;			<polygon
   class="st5"
   points="149.5,14 149.5,34 129.5,24 "
   id="polygon1219" />&#10;		</g>&#10;		<g
   class="st2"
   id="g1225">&#10;			<polygon
   class="st6"
   points="129.5,50 129.5,70 149.5,60 "
   id="polygon1223" />&#10;		</g>&#10;		<g
   class="st2"
   id="g1229">&#10;			<polygon
   class="st6"
   points="149.5,38 149.5,58 129.5,48 "
   id="polygon1227" />&#10;		</g>&#10;		<g
   class="st2"
   id="g1233">&#10;			<polygon
   class="st3"
   points="129.5,74 129.5,94 149.5,84 "
   id="polygon1231" />&#10;		</g>&#10;		<g
   class="st2"
   id="g1237">&#10;			<polygon
   class="st8"
   points="149.5,62 149.5,82 129.5,72 "
   id="polygon1235" />&#10;		</g>&#10;		<g
   class="st2"
   id="g1241">&#10;			<polygon
   class="st3"
   points="129.5,98 129.5,118 149.5,108 "
   id="polygon1239" />&#10;		</g>&#10;		<g
   class="st2"
   id="g1245">&#10;			<polygon
   class="st3"
   points="149.5,86 149.5,106 129.5,96 "
   id="polygon1243" />&#10;		</g>&#10;		<g
   class="st2"
   id="g1249">&#10;			<polygon
   class="st4"
   points="149.5,110 149.5,130 129.5,120 "
   id="polygon1247" />&#10;		</g>&#10;		<g
   class="st2"
   id="g1253">&#10;			<polygon
   class="st7"
   points="151.5,-10 151.5,10 171.5,0 "
   id="polygon1251" />&#10;		</g>&#10;		<g
   class="st2"
   id="g1257">&#10;			<polygon
   class="st5"
   points="151.5,14 151.5,34 171.5,24 "
   id="polygon1255" />&#10;		</g>&#10;		<g
   class="st2"
   id="g1261">&#10;			<polygon
   class="st5"
   points="171.5,2 171.5,22 151.5,12 "
   id="polygon1259" />&#10;		</g>&#10;		<g
   class="st2"
   id="g1265">&#10;			<polygon
   class="st6"
   points="151.5,38 151.5,58 171.5,48 "
   id="polygon1263" />&#10;		</g>&#10;		<g
   class="st2"
   id="g1269">&#10;			<polygon
   class="st5"
   points="171.5,26 171.5,46 151.5,36 "
   id="polygon1267" />&#10;		</g>&#10;		<g
   class="st2"
   id="g1273">&#10;			<polygon
   class="st8"
   points="151.5,62 151.5,82 171.5,72 "
   id="polygon1271" />&#10;		</g>&#10;		<g
   class="st2"
   id="g1277">&#10;			<polygon
   class="st8"
   points="171.5,50 171.5,70 151.5,60 "
   id="polygon1275" />&#10;		</g>&#10;		<g
   class="st2"
   id="g1281">&#10;			<polygon
   class="st3"
   points="151.5,86 151.5,106 171.5,96 "
   id="polygon1279" />&#10;		</g>&#10;		<g
   class="st2"
   id="g1285">&#10;			<polygon
   class="st8"
   points="171.5,74 171.5,94 151.5,84 "
   id="polygon1283" />&#10;		</g>&#10;		<g
   class="st2"
   id="g1289">&#10;			<polygon
   class="st4"
   points="151.5,110 151.5,130 171.5,120 "
   id="polygon1287" />&#10;		</g>&#10;		<g
   class="st2"
   id="g1293">&#10;			<polygon
   class="st4"
   points="171.5,98 171.5,118 151.5,108 "
   id="polygon1291" />&#10;		</g>&#10;		<g
   class="st2"
   id="g1297">&#10;			<polygon
   class="st7"
   points="215.5,118 215.5,98 195.5,108 "
   id="polygon1295" />&#10;		</g>&#10;		<g
   class="st2"
   id="g1301">&#10;			<polygon
   class="st3"
   points="195.5,130 195.5,110 215.5,120 "
   id="polygon1299" />&#10;		</g>&#10;		<g
   class="st2"
   id="g1305">&#10;			<polygon
   class="st7"
   points="215.5,94 215.5,74 195.5,84 "
   id="polygon1303" />&#10;		</g>&#10;		<g
   class="st2"
   id="g1309">&#10;			<polygon
   class="st7"
   points="195.5,106 195.5,86 215.5,96 "
   id="polygon1307" />&#10;		</g>&#10;		<g
   class="st2"
   id="g1313">&#10;			<polygon
   class="st8"
   points="215.5,70 215.5,50 195.5,60 "
   id="polygon1311" />&#10;		</g>&#10;		<g
   class="st2"
   id="g1317">&#10;			<polygon
   class="st5"
   points="195.5,82 195.5,62 215.5,72 "
   id="polygon1315" />&#10;		</g>&#10;		<g
   class="st2"
   id="g1321">&#10;			<polygon
   class="st8"
   points="215.5,46 215.5,26 195.5,36 "
   id="polygon1319" />&#10;		</g>&#10;		<g
   class="st2"
   id="g1325">&#10;			<polygon
   class="st8"
   points="195.5,58 195.5,38 215.5,48 "
   id="polygon1323" />&#10;		</g>&#10;		<g
   class="st2"
   id="g1329">&#10;			<polygon
   class="st6"
   points="215.5,22 215.5,2 195.5,12 "
   id="polygon1327" />&#10;		</g>&#10;		<g
   class="st2"
   id="g1333">&#10;			<polygon
   class="st4"
   points="195.5,34 195.5,14 215.5,24 "
   id="polygon1331" />&#10;		</g>&#10;		<g
   class="st2"
   id="g1337">&#10;			<polygon
   class="st6"
   points="195.5,10 195.5,-10 215.5,0 "
   id="polygon1335" />&#10;		</g>&#10;		<g
   class="st2"
   id="g1341">&#10;			<polygon
   class="st3"
   points="193.5,130 193.5,110 173.5,120 "
   id="polygon1339" />&#10;		</g>&#10;		<g
   class="st2"
   id="g1345">&#10;			<polygon
   class="st7"
   points="193.5,106 193.5,86 173.5,96 "
   id="polygon1343" />&#10;		</g>&#10;		<g
   class="st2"
   id="g1349">&#10;			<polygon
   class="st3"
   points="173.5,118 173.5,98 193.5,108 "
   id="polygon1347" />&#10;		</g>&#10;		<g
   class="st2"
   id="g1353">&#10;			<polygon
   class="st5"
   points="193.5,82 193.5,62 173.5,72 "
   id="polygon1351" />&#10;		</g>&#10;		<g
   class="st2"
   id="g1357">&#10;			<polygon
   class="st5"
   points="173.5,94 173.5,74 193.5,84 "
   id="polygon1355" />&#10;		</g>&#10;		<g
   class="st2"
   id="g1361">&#10;			<polygon
   class="st8"
   points="193.5,58 193.5,38 173.5,48 "
   id="polygon1359" />&#10;		</g>&#10;		<g
   class="st2"
   id="g1365">&#10;			<polygon
   class="st5"
   points="173.5,70 173.5,50 193.5,60 "
   id="polygon1363" />&#10;		</g>&#10;		<g
   class="st2"
   id="g1369">&#10;			<polygon
   class="st4"
   points="193.5,34 193.5,14 173.5,24 "
   id="polygon1367" />&#10;		</g>&#10;		<g
   class="st2"
   id="g1373">&#10;			<polygon
   class="st4"
   points="173.5,46 173.5,26 193.5,36 "
   id="polygon1371" />&#10;		</g>&#10;		<g
   class="st2"
   id="g1377">&#10;			<polygon
   class="st6"
   points="193.5,10 193.5,-10 173.5,0 "
   id="polygon1375" />&#10;		</g>&#10;		<g
   class="st2"
   id="g1381">&#10;			<polygon
   class="st4"
   points="173.5,22 173.5,2 193.5,12 "
   id="polygon1379" />&#10;		</g>&#10;	</g>&#10;	<g
   id="Diagonal_rainbow">&#10;		<g
   id="g1386">&#10;			<polygon
   class="st9"
   points="-2.5,2 -2.5,22 17.5,12 "
   id="polygon1384" />&#10;		</g>&#10;		<g
   id="g1390">&#10;			<polygon
   class="st9"
   points="17.5,-10 17.5,10 -2.5,0 "
   id="polygon1388" />&#10;		</g>&#10;		<g
   id="g1394">&#10;			<polygon
   class="st10"
   points="-2.5,26 -2.5,46 17.5,36 "
   id="polygon1392" />&#10;		</g>&#10;		<g
   id="g1398">&#10;			<polygon
   class="st10"
   points="17.5,14 17.5,34 -2.5,24 "
   id="polygon1396" />&#10;		</g>&#10;		<g
   id="g1402">&#10;			<polygon
   class="st5"
   points="-2.5,50 -2.5,70 17.5,60 "
   id="polygon1400" />&#10;		</g>&#10;		<g
   id="g1406">&#10;			<polygon
   class="st5"
   points="17.5,38 17.5,58 -2.5,48 "
   id="polygon1404" />&#10;		</g>&#10;		<g
   id="g1410">&#10;			<polygon
   class="st6"
   points="-2.5,74 -2.5,94 17.5,84 "
   id="polygon1408" />&#10;		</g>&#10;		<g
   id="g1414">&#10;			<polygon
   class="st6"
   points="17.5,62 17.5,82 -2.5,72 "
   id="polygon1412" />&#10;		</g>&#10;		<g
   id="g1418">&#10;			<polygon
   class="st8"
   points="-2.5,98 -2.5,118 17.5,108 "
   id="polygon1416" />&#10;		</g>&#10;		<g
   id="g1422">&#10;			<polygon
   class="st8"
   points="17.5,86 17.5,106 -2.5,96 "
   id="polygon1420" />&#10;		</g>&#10;		<g
   id="g1426">&#10;			<polygon
   class="st7"
   points="17.5,110 17.5,130 -2.5,120 "
   id="polygon1424" />&#10;		</g>&#10;		<g
   id="g1430">&#10;			<polygon
   class="st9"
   points="19.5,-10 19.5,10 39.5,0 "
   id="polygon1428" />&#10;		</g>&#10;		<g
   id="g1434">&#10;			<polygon
   class="st10"
   points="19.5,14 19.5,34 39.5,24 "
   id="polygon1432" />&#10;		</g>&#10;		<g
   id="g1438">&#10;			<polygon
   class="st10"
   points="39.5,2 39.5,22 19.5,12 "
   id="polygon1436" />&#10;		</g>&#10;		<g
   id="g1442">&#10;			<polygon
   class="st5"
   points="19.5,38 19.5,58 39.5,48 "
   id="polygon1440" />&#10;		</g>&#10;		<g
   id="g1446">&#10;			<polygon
   class="st5"
   points="39.5,26 39.5,46 19.5,36 "
   id="polygon1444" />&#10;		</g>&#10;		<g
   id="g1450">&#10;			<polygon
   class="st6"
   points="19.5,62 19.5,82 39.5,72 "
   id="polygon1448" />&#10;		</g>&#10;		<g
   id="g1454">&#10;			<polygon
   class="st6"
   points="39.5,50 39.5,70 19.5,60 "
   id="polygon1452" />&#10;		</g>&#10;		<g
   id="g1458">&#10;			<polygon
   class="st8"
   points="19.5,86 19.5,106 39.5,96 "
   id="polygon1456" />&#10;		</g>&#10;		<g
   id="g1462">&#10;			<polygon
   class="st8"
   points="39.5,74 39.5,94 19.5,84 "
   id="polygon1460" />&#10;		</g>&#10;		<g
   id="g1466">&#10;			<polygon
   class="st7"
   points="19.5,110 19.5,130 39.5,120 "
   id="polygon1464" />&#10;		</g>&#10;		<g
   id="g1470">&#10;			<polygon
   class="st7"
   points="39.5,98 39.5,118 19.5,108 "
   id="polygon1468" />&#10;		</g>&#10;		<g
   id="g1474">&#10;			<polygon
   class="st10"
   points="41.5,2 41.5,22 61.5,12 "
   id="polygon1472" />&#10;		</g>&#10;		<g
   id="g1478">&#10;			<polygon
   class="st10"
   points="61.5,-10 61.5,10 41.5,0 "
   id="polygon1476" />&#10;		</g>&#10;		<g
   id="g1482">&#10;			<polygon
   class="st5"
   points="41.5,26 41.5,46 61.5,36 "
   id="polygon1480" />&#10;		</g>&#10;		<g
   id="g1486">&#10;			<polygon
   class="st5"
   points="61.5,14 61.5,34 41.5,24 "
   id="polygon1484" />&#10;		</g>&#10;		<g
   id="g1490">&#10;			<polygon
   class="st6"
   points="41.5,50 41.5,70 61.5,60 "
   id="polygon1488" />&#10;		</g>&#10;		<g
   id="g1494">&#10;			<polygon
   class="st6"
   points="61.5,38 61.5,58 41.5,48 "
   id="polygon1492" />&#10;		</g>&#10;		<g
   id="g1498">&#10;			<polygon
   class="st8"
   points="41.5,74 41.5,94 61.5,84 "
   id="polygon1496" />&#10;		</g>&#10;		<g
   id="g1502">&#10;			<polygon
   class="st8"
   points="61.5,62 61.5,82 41.5,72 "
   id="polygon1500" />&#10;		</g>&#10;		<g
   id="g1506">&#10;			<polygon
   class="st7"
   points="41.5,98 41.5,118 61.5,108 "
   id="polygon1504" />&#10;		</g>&#10;		<g
   id="g1510">&#10;			<polygon
   class="st7"
   points="61.5,86 61.5,106 41.5,96 "
   id="polygon1508" />&#10;		</g>&#10;		<g
   id="g1514">&#10;			<polygon
   class="st3"
   points="61.5,110 61.5,130 41.5,120 "
   id="polygon1512" />&#10;		</g>&#10;		<g
   id="g1518">&#10;			<polygon
   class="st10"
   points="63.5,-10 63.5,10 83.5,0 "
   id="polygon1516" />&#10;		</g>&#10;		<g
   id="g1522">&#10;			<polygon
   class="st5"
   points="63.5,14 63.5,34 83.5,24 "
   id="polygon1520" />&#10;		</g>&#10;		<g
   id="g1526">&#10;			<polygon
   class="st5"
   points="83.5,2 83.5,22 63.5,12 "
   id="polygon1524" />&#10;		</g>&#10;		<g
   id="g1530">&#10;			<polygon
   class="st6"
   points="63.5,38 63.5,58 83.5,48 "
   id="polygon1528" />&#10;		</g>&#10;		<g
   id="g1534">&#10;			<polygon
   class="st6"
   points="83.5,26 83.5,46 63.5,36 "
   id="polygon1532" />&#10;		</g>&#10;		<g
   id="g1538">&#10;			<polygon
   class="st8"
   points="63.5,62 63.5,82 83.5,72 "
   id="polygon1536" />&#10;		</g>&#10;		<g
   id="g1542">&#10;			<polygon
   class="st8"
   points="83.5,50 83.5,70 63.5,60 "
   id="polygon1540" />&#10;		</g>&#10;		<g
   id="g1546">&#10;			<polygon
   class="st7"
   points="63.5,86 63.5,106 83.5,96 "
   id="polygon1544" />&#10;		</g>&#10;		<g
   id="g1550">&#10;			<polygon
   class="st7"
   points="83.5,74 83.5,94 63.5,84 "
   id="polygon1548" />&#10;		</g>&#10;		<g
   id="g1554">&#10;			<polygon
   class="st3"
   points="63.5,110 63.5,130 83.5,120 "
   id="polygon1552" />&#10;		</g>&#10;		<g
   id="g1558">&#10;			<polygon
   class="st3"
   points="83.5,98 83.5,118 63.5,108 "
   id="polygon1556" />&#10;		</g>&#10;		<g
   id="g1562">&#10;			<polygon
   class="st5"
   points="85.5,2 85.5,22 105.5,12 "
   id="polygon1560" />&#10;		</g>&#10;		<g
   id="g1566">&#10;			<polygon
   class="st5"
   points="105.5,-10 105.5,10 85.5,0 "
   id="polygon1564" />&#10;		</g>&#10;		<g
   id="g1570">&#10;			<polygon
   class="st6"
   points="85.5,26 85.5,46 105.5,36 "
   id="polygon1568" />&#10;		</g>&#10;		<g
   id="g1574">&#10;			<polygon
   class="st6"
   points="105.5,14 105.5,34 85.5,24 "
   id="polygon1572" />&#10;		</g>&#10;		<g
   id="g1578">&#10;			<polygon
   class="st8"
   points="85.5,50 85.5,70 105.5,60 "
   id="polygon1576" />&#10;		</g>&#10;		<g
   id="g1582">&#10;			<polygon
   class="st8"
   points="105.5,38 105.5,58 85.5,48 "
   id="polygon1580" />&#10;		</g>&#10;		<g
   id="g1586">&#10;			<polygon
   class="st7"
   points="85.5,74 85.5,94 105.5,84 "
   id="polygon1584" />&#10;		</g>&#10;		<g
   id="g1590">&#10;			<polygon
   class="st7"
   points="105.5,62 105.5,82 85.5,72 "
   id="polygon1588" />&#10;		</g>&#10;		<g
   id="g1594">&#10;			<polygon
   class="st3"
   points="85.5,98 85.5,118 105.5,108 "
   id="polygon1592" />&#10;		</g>&#10;		<g
   id="g1598">&#10;			<polygon
   class="st3"
   points="105.5,86 105.5,106 85.5,96 "
   id="polygon1596" />&#10;		</g>&#10;		<g
   id="g1602">&#10;			<polygon
   class="st4"
   points="105.5,110 105.5,130 85.5,120 "
   id="polygon1600" />&#10;		</g>&#10;		<g
   id="g1606">&#10;			<polygon
   class="st5"
   points="107.5,-10 107.5,10 127.5,0 "
   id="polygon1604" />&#10;		</g>&#10;		<g
   id="g1610">&#10;			<polygon
   class="st6"
   points="107.5,14 107.5,34 127.5,24 "
   id="polygon1608" />&#10;		</g>&#10;		<g
   id="g1614">&#10;			<polygon
   class="st6"
   points="127.5,2 127.5,22 107.5,12 "
   id="polygon1612" />&#10;		</g>&#10;		<g
   id="g1618">&#10;			<polygon
   class="st8"
   points="107.5,38 107.5,58 127.5,48 "
   id="polygon1616" />&#10;		</g>&#10;		<g
   id="g1622">&#10;			<polygon
   class="st8"
   points="127.5,26 127.5,46 107.5,36 "
   id="polygon1620" />&#10;		</g>&#10;		<g
   id="g1626">&#10;			<polygon
   class="st7"
   points="107.5,62 107.5,82 127.5,72 "
   id="polygon1624" />&#10;		</g>&#10;		<g
   id="g1630">&#10;			<polygon
   class="st7"
   points="127.5,50 127.5,70 107.5,60 "
   id="polygon1628" />&#10;		</g>&#10;		<g
   id="g1634">&#10;			<polygon
   class="st3"
   points="107.5,86 107.5,106 127.5,96 "
   id="polygon1632" />&#10;		</g>&#10;		<g
   id="g1638">&#10;			<polygon
   class="st3"
   points="127.5,74 127.5,94 107.5,84 "
   id="polygon1636" />&#10;		</g>&#10;		<g
   id="g1642">&#10;			<polygon
   class="st4"
   points="107.5,110 107.5,130 127.5,120 "
   id="polygon1640" />&#10;		</g>&#10;		<g
   id="g1646">&#10;			<polygon
   class="st4"
   points="127.5,98 127.5,118 107.5,108 "
   id="polygon1644" />&#10;		</g>&#10;		<g
   id="g1650">&#10;			<polygon
   class="st6"
   points="129.5,2 129.5,22 149.5,12 "
   id="polygon1648" />&#10;		</g>&#10;		<g
   id="g1654">&#10;			<polygon
   class="st6"
   points="149.5,-10 149.5,10 129.5,0 "
   id="polygon1652" />&#10;		</g>&#10;		<g
   id="g1658">&#10;			<polygon
   class="st8"
   points="129.5,26 129.5,46 149.5,36 "
   id="polygon1656" />&#10;		</g>&#10;		<g
   id="g1662">&#10;			<polygon
   class="st8"
   points="149.5,14 149.5,34 129.5,24 "
   id="polygon1660" />&#10;		</g>&#10;		<g
   id="g1666">&#10;			<polygon
   class="st7"
   points="129.5,50 129.5,70 149.5,60 "
   id="polygon1664" />&#10;		</g>&#10;		<g
   id="g1670">&#10;			<polygon
   class="st7"
   points="149.5,38 149.5,58 129.5,48 "
   id="polygon1668" />&#10;		</g>&#10;		<g
   id="g1674">&#10;			<polygon
   class="st3"
   points="129.5,74 129.5,94 149.5,84 "
   id="polygon1672" />&#10;		</g>&#10;		<g
   id="g1678">&#10;			<polygon
   class="st3"
   points="149.5,62 149.5,82 129.5,72 "
   id="polygon1676" />&#10;		</g>&#10;		<g
   id="g1682">&#10;			<polygon
   class="st4"
   points="129.5,98 129.5,118 149.5,108 "
   id="polygon1680" />&#10;		</g>&#10;		<g
   id="g1686">&#10;			<polygon
   class="st4"
   points="149.5,86 149.5,106 129.5,96 "
   id="polygon1684" />&#10;		</g>&#10;		<g
   id="g1690">&#10;			<polygon
   class="st11"
   points="149.5,110 149.5,130 129.5,120 "
   id="polygon1688" />&#10;		</g>&#10;		<g
   id="g1694">&#10;			<polygon
   class="st6"
   points="151.5,-10 151.5,10 171.5,0 "
   id="polygon1692" />&#10;		</g>&#10;		<g
   id="g1698">&#10;			<polygon
   class="st8"
   points="151.5,14 151.5,34 171.5,24 "
   id="polygon1696" />&#10;		</g>&#10;		<g
   id="g1702">&#10;			<polygon
   class="st8"
   points="171.5,2 171.5,22 151.5,12 "
   id="polygon1700" />&#10;		</g>&#10;		<g
   id="g1706">&#10;			<polygon
   class="st7"
   points="151.5,38 151.5,58 171.5,48 "
   id="polygon1704" />&#10;		</g>&#10;		<g
   id="g1710">&#10;			<polygon
   class="st7"
   points="171.5,26 171.5,46 151.5,36 "
   id="polygon1708" />&#10;		</g>&#10;		<g
   id="g1714">&#10;			<polygon
   class="st3"
   points="151.5,62 151.5,82 171.5,72 "
   id="polygon1712" />&#10;		</g>&#10;		<g
   id="g1718">&#10;			<polygon
   class="st3"
   points="171.5,50 171.5,70 151.5,60 "
   id="polygon1716" />&#10;		</g>&#10;		<g
   id="g1722">&#10;			<polygon
   class="st4"
   points="151.5,86 151.5,106 171.5,96 "
   id="polygon1720" />&#10;		</g>&#10;		<g
   id="g1726">&#10;			<polygon
   class="st4"
   points="171.5,74 171.5,94 151.5,84 "
   id="polygon1724" />&#10;		</g>&#10;		<g
   id="g1730">&#10;			<polygon
   class="st11"
   points="151.5,110 151.5,130 171.5,120 "
   id="polygon1728" />&#10;		</g>&#10;		<g
   id="g1734">&#10;			<polygon
   class="st11"
   points="171.5,98 171.5,118 151.5,108 "
   id="polygon1732" />&#10;		</g>&#10;		<g
   id="g1738">&#10;			<polygon
   class="st12"
   points="215.5,118 215.5,98 195.5,108 "
   id="polygon1736" />&#10;		</g>&#10;		<g
   id="g1742">&#10;			<polygon
   class="st12"
   points="195.5,130 195.5,110 215.5,120 "
   id="polygon1740" />&#10;		</g>&#10;		<g
   id="g1746">&#10;			<polygon
   class="st11"
   points="215.5,94 215.5,74 195.5,84 "
   id="polygon1744" />&#10;		</g>&#10;		<g
   id="g1750">&#10;			<polygon
   class="st11"
   points="195.5,106 195.5,86 215.5,96 "
   id="polygon1748" />&#10;		</g>&#10;		<g
   id="g1754">&#10;			<polygon
   class="st4"
   points="215.5,70 215.5,50 195.5,60 "
   id="polygon1752" />&#10;		</g>&#10;		<g
   id="g1758">&#10;			<polygon
   class="st4"
   points="195.5,82 195.5,62 215.5,72 "
   id="polygon1756" />&#10;		</g>&#10;		<g
   id="g1762">&#10;			<polygon
   class="st3"
   points="215.5,46 215.5,26 195.5,36 "
   id="polygon1760" />&#10;		</g>&#10;		<g
   id="g1766">&#10;			<polygon
   class="st3"
   points="195.5,58 195.5,38 215.5,48 "
   id="polygon1764" />&#10;		</g>&#10;		<g
   id="g1770">&#10;			<polygon
   class="st7"
   points="215.5,22 215.5,2 195.5,12 "
   id="polygon1768" />&#10;		</g>&#10;		<g
   id="g1774">&#10;			<polygon
   class="st7"
   points="195.5,34 195.5,14 215.5,24 "
   id="polygon1772" />&#10;		</g>&#10;		<g
   id="g1778">&#10;			<polygon
   class="st8"
   points="195.5,10 195.5,-10 215.5,0 "
   id="polygon1776" />&#10;		</g>&#10;		<g
   id="g1782">&#10;			<polygon
   class="st12"
   points="193.5,130 193.5,110 173.5,120 "
   id="polygon1780" />&#10;		</g>&#10;		<g
   id="g1786">&#10;			<polygon
   class="st11"
   points="193.5,106 193.5,86 173.5,96 "
   id="polygon1784" />&#10;		</g>&#10;		<g
   id="g1790">&#10;			<polygon
   class="st11"
   points="173.5,118 173.5,98 193.5,108 "
   id="polygon1788" />&#10;		</g>&#10;		<g
   id="g1794">&#10;			<polygon
   class="st4"
   points="193.5,82 193.5,62 173.5,72 "
   id="polygon1792" />&#10;		</g>&#10;		<g
   id="g1798">&#10;			<polygon
   class="st4"
   points="173.5,94 173.5,74 193.5,84 "
   id="polygon1796" />&#10;		</g>&#10;		<g
   id="g1802">&#10;			<polygon
   class="st3"
   points="193.5,58 193.5,38 173.5,48 "
   id="polygon1800" />&#10;		</g>&#10;		<g
   id="g1806">&#10;			<polygon
   class="st3"
   points="173.5,70 173.5,50 193.5,60 "
   id="polygon1804" />&#10;		</g>&#10;		<g
   id="g1810">&#10;			<polygon
   class="st7"
   points="193.5,34 193.5,14 173.5,24 "
   id="polygon1808" />&#10;		</g>&#10;		<g
   id="g1814">&#10;			<polygon
   class="st7"
   points="173.5,46 173.5,26 193.5,36 "
   id="polygon1812" />&#10;		</g>&#10;		<g
   id="g1818">&#10;			<polygon
   class="st8"
   points="193.5,10 193.5,-10 173.5,0 "
   id="polygon1816" />&#10;		</g>&#10;		<g
   id="g1822">&#10;			<polygon
   class="st8"
   points="173.5,22 173.5,2 193.5,12 "
   id="polygon1820" />&#10;		</g>&#10;	</g>&#10;</g><path
   class="st0"
   d="m 77.69336,26.141613 h -0.93718 c -1.78912,0 -3.40788,0.851972 -4.51544,2.129932 -4.17468,-0.25559 -8.34935,-0.425987 -12.52401,-0.425987 -4.08946,0 -8.349314,0.170397 -12.523978,0.425987 -1.107564,-1.363157 -2.726315,-2.129932 -4.515454,-2.129932 h -0.93717 c -0.681576,0 -1.874341,0 -2.726312,0.08519 -2.641113,0.170394 -5.367426,0.596381 -7.923344,1.363156 -1.959536,0.596379 -3.578281,2.215129 -4.089466,4.259863 l -0.425986,2.215125 c -4.259863,3.49309 -7.156568,8.604924 -7.923344,14.142745 l -1.874338,13.801953 c -0.170394,1.363154 -0.511182,2.641112 -0.851971,4.004269 -0.340792,1.533549 -0.511185,3.067101 -0.511185,4.515453 0,0.511184 0,1.022368 0.08519,1.448354 v 0.425987 0.08519 0.0852 c 1.022364,9.968079 9.45689,17.550632 19.510164,17.550632 8.690118,0 16.187473,-5.537819 18.743394,-13.887148 0.0852,-0.340793 0.42598,-0.596383 0.85198,-0.596383 h 10.30885 c 0.34078,0 0.68158,0.25559 0.85198,0.596383 2.55591,8.264129 10.05326,13.887148 18.74338,13.887148 10.05328,0 18.40261,-7.497358 19.51018,-17.550632 v -0.0852 -0.08519 -0.425987 c 0,-0.425986 0.0851,-0.93717 0.0851,-1.448354 0,-1.533551 -0.1704,-3.067099 -0.5112,-4.515453 -0.34078,-1.363157 -0.68157,-2.72631 -0.85196,-4.004269 l -1.87435,-13.801949 c -0.76677,-5.53782 -3.57831,-10.649655 -7.92335,-14.142744 l -0.51117,-2.12993 C 91.92117,29.890289 90.38762,28.27154 88.34288,27.675163 85.78699,26.908385 83.24815,26.547179 80.41956,26.312006 79.4926,26.179105 78.28964,26.14161 77.69324,26.14161 Z"
   id="path1828"
   style="display:inline;fill:none;fill-opacity:0.984456;stroke:#ffffff;stroke-width:6.81577;stroke-dasharray:none;stroke-opacity:1" />&#10;&#10;<g
   id="Controller"
   transform="matrix(0.85197175,0,0,0.85197175,-31.01974,5.9496178)">&#10;	<g
   id="g1865"
   style="display:inline">&#10;		<path
   class="st0"
   d="m 127.6,23.7 h -1.1 c -2.1,0 -4,1 -5.3,2.5 -4.9,-0.3 -9.8,-0.5 -14.7,-0.5 -4.8,0 -9.8,0.2 -14.7,0.5 -1.3,-1.6 -3.2,-2.5 -5.3,-2.5 h -1.1 c -0.8,0 -2.2,0 -3.2,0.1 -3.1,0.2 -6.3,0.7 -9.3,1.6 -2.3,0.7 -4.2,2.6 -4.8,5 L 67.6,33 c -5,4.1 -8.4,10.1 -9.3,16.6 l -2.2,16.2 c -0.2,1.6 -0.6,3.1 -1,4.7 -0.4,1.8 -0.6,3.6 -0.6,5.3 0,0.6 0,1.2 0.1,1.7 v 0.5 0.1 0.1 c 1.2,11.7 11.1,20.6 22.9,20.6 10.2,0 19,-6.5 22,-16.3 0.1,-0.4 0.5,-0.7 1,-0.7 h 12.1 c 0.4,0 0.8,0.3 1,0.7 3,9.7 11.8,16.3 22,16.3 11.8,0 21.6,-8.8 22.9,-20.6 V 78.1 78 77.5 c 0,-0.5 0.1,-1.1 0.1,-1.7 0,-1.8 -0.2,-3.6 -0.6,-5.3 -0.4,-1.6 -0.8,-3.2 -1,-4.7 L 154.8,49.6 C 153.9,43.1 150.6,37.1 145.5,33 l -0.6,-2.5 c -0.6,-2.4 -2.4,-4.3 -4.8,-5 -3,-0.9 -5.97996,-1.323967 -9.3,-1.6 -1.08802,-0.155992 -2.5,-0.2 -3.2,-0.2 z"
   id="path3565"
   style="display:inline;fill:#7f7f7f;fill-opacity:1;stroke:none;stroke-width:8;stroke-dasharray:none;stroke-opacity:0.896373" /><path
   class="st0"
   d="m 121.2,26.2 c -4.9,-0.3 -9.8,-0.5 -14.7,-0.5 -4.8,0 -9.8,0.2 -14.7,0.5 -11.669678,0 -14.856213,1.405362 -24.2,6.8 -5,4.1 -8.4,10.1 -9.3,16.6 l -2.2,16.2 c -0.2,1.6 -0.6,3.1 -1,4.7 -0.4,1.8 -0.6,3.6 -0.6,5.3 0,0.6 0,1.2 0.1,1.7 v 0.5 0.1 0.1 c 1.2,11.7 11.1,20.6 22.9,20.6 10.2,0 19,-6.5 22,-16.3 0.1,-0.4 0.5,-0.7 1,-0.7 h 12.1 c 0.4,0 0.8,0.3 1,0.7 3,9.7 11.8,16.3 22,16.3 11.8,0 21.6,-8.8 22.9,-20.6 V 78.1 78 77.5 c 0,-0.5 0.1,-1.1 0.1,-1.7 0,-1.8 -0.2,-3.6 -0.6,-5.3 -0.4,-1.6 -0.8,-3.2 -1,-4.7 l -2.2,-16.2 c -0.9,-6.5 -4.2,-12.5 -9.3,-16.6 -7.72081,-4.457613 -18.29641,-6.8 -24.3,-6.8 z"
   id="path3575"
   style="display:inline;fill:#4d4d4d;fill-opacity:1;stroke:none;stroke-width:8;stroke-dasharray:none;stroke-opacity:0.896373" />&#10;		&#10;		<g
   id="g1863"
   style="display:inline;fill:#bebebe;fill-opacity:1;stroke:none">&#10;			<g
   id="g1845"
   style="display:inline;fill:#bebebe;fill-opacity:1;stroke:none">&#10;				<circle
   class="st13"
   cx="131.5"
   cy="47.799999"
   r="4"
   id="circle1843"
   style="fill:#bebebe;fill-opacity:1;stroke:none" />&#10;			</g>&#10;			<g
   id="g1849"
   style="display:inline;fill:#bebebe;fill-opacity:1;stroke:none">&#10;				<circle
   class="st13"
   cx="131.5"
   cy="63.799999"
   r="4"
   id="circle1847"
   style="fill:#bebebe;fill-opacity:1;stroke:none" />&#10;			</g>&#10;			<g
   id="g1853"
   style="display:inline;fill:#bebebe;fill-opacity:1;stroke:none">&#10;				<circle
   class="st13"
   cx="139.5"
   cy="55.799999"
   r="4"
   id="circle1851"
   style="fill:#bebebe;fill-opacity:1;stroke:none" />&#10;			</g>&#10;			<g
   id="g1857"
   style="display:inline;fill:#bebebe;fill-opacity:1;stroke:none">&#10;				<circle
   class="st13"
   cx="123.5"
   cy="55.799999"
   r="4"
   id="circle1855"
   style="fill:#bebebe;fill-opacity:1;stroke:none" />&#10;			</g>&#10;			<g
   id="g1861"
   style="display:inline;fill:#bebebe;fill-opacity:1;stroke:none">&#10;				<path
   class="st13"
   d="m 91.5,51.8 h -5 v -5 c 0,-2.2 -1.8,-4 -4,-4 -2.2,0 -4,1.8 -4,4 v 5 h -5 c -2.2,0 -4,1.8 -4,4 0,2.2 1.8,4 4,4 h 5 v 5 c 0,2.2 1.8,4 4,4 2.2,0 4,-1.8 4,-4 v -5 h 5 c 2.2,0 4,-1.8 4,-4 0,-2.2 -1.8,-4 -4,-4 z"
   id="path1859"
   style="fill:#bebebe;fill-opacity:1;stroke:none" />&#10;			</g>&#10;		</g>&#10;	</g>&#10;</g>&#10;</svg>
