<?xml version="1.0" standalone="no"?>
<!DOCTYPE svg PUBLIC "-//W3C//DTD SVG 20010904//EN"
 "http://www.w3.org/TR/2001/REC-SVG-20010904/DTD/svg10.dtd">
<svg version="1.0" xmlns="http://www.w3.org/2000/svg"
 width="700.000000pt" height="700.000000pt" viewBox="0 0 700.000000 700.000000"
 preserveAspectRatio="xMidYMid meet">
<metadata>
Created by potrace 1.14, written by Peter Selinger 2001-2017
</metadata>
<g transform="translate(0.000000,700.000000) scale(0.100000,-0.100000)"
fill="#000000" stroke="none">
<path d="M2210 5464 c-97 -11 -244 -37 -320 -55 -116 -29 -194 -71 -243 -134
-47 -60 -55 -77 -78 -180 -17 -75 -21 -82 -68 -123 -106 -91 -231 -260 -300
-407 -83 -175 -95 -230 -171 -790 -38 -283 -73 -498 -92 -580 -30 -122 -32
-141 -32 -315 0 -168 3 -194 27 -283 146 -544 668 -906 1220 -849 453 47 831
347 971 770 13 39 25 56 43 63 31 12 604 12 636 0 17 -7 30 -27 47 -73 119
-330 386 -596 704 -703 638 -214 1302 140 1483 791 26 92 28 112 28 289 0 179
-2 197 -32 320 -21 83 -54 293 -93 580 -33 248 -71 493 -84 545 -58 234 -189
457 -363 620 -73 68 -76 72 -95 148 -36 139 -96 220 -202 267 -124 56 -494
111 -699 103 -124 -5 -171 -21 -244 -83 l-39 -33 -159 10 c-207 13 -945 13
-1144 0 l-155 -10 -40 34 c-83 71 -112 79 -301 80 -93 1 -186 0 -205 -2z m170
-964 c47 -24 84 -71 99 -125 6 -22 11 -97 11 -167 l0 -128 128 0 c141 0 191
-10 240 -47 96 -72 96 -234 0 -306 -49 -37 -99 -47 -240 -47 l-128 0 0 -127
c0 -142 -10 -192 -47 -241 -64 -85 -203 -97 -287 -23 -10 9 -28 34 -39 56 -18
34 -22 62 -25 188 l-4 147 -127 0 c-69 0 -144 5 -166 11 -193 53 -193 325 0
378 22 6 97 11 166 11 l127 0 4 148 c5 184 23 228 113 275 43 23 127 21 175
-3z m2438 -51 c152 -74 126 -315 -40 -359 -155 -42 -294 111 -232 258 19 46
60 90 99 108 46 20 122 17 173 -7z m-399 -398 c19 -10 49 -34 65 -55 29 -35
31 -44 31 -116 0 -72 -2 -81 -31 -117 -40 -50 -96 -77 -159 -77 -60 1 -101 21
-143 68 -28 33 -52 89 -52 126 0 58 52 144 104 172 57 31 124 30 185 -1z m803
-3 c156 -87 111 -329 -67 -362 -112 -21 -225 75 -225 191 1 155 156 246 292
171z m-439 -379 c161 -44 185 -285 35 -358 -77 -37 -165 -26 -222 27 -88 83
-85 226 7 296 58 44 111 54 180 35z"/>
</g>
</svg>
