<?xml version="1.0" standalone="no"?>
<!DOCTYPE svg PUBLIC "-//W3C//DTD SVG 20010904//EN"
 "http://www.w3.org/TR/2001/REC-SVG-20010904/DTD/svg10.dtd">
<svg version="1.0" xmlns="http://www.w3.org/2000/svg"
 width="700.000000pt" height="700.000000pt" viewBox="0 0 700.000000 700.000000"
 preserveAspectRatio="xMidYMid meet">
<metadata>
Created by potrace 1.14, written by Peter Selinger 2001-2017
</metadata>
<g transform="translate(0.000000,700.000000) scale(0.100000,-0.100000)"
fill="#000000" stroke="none">
<path d="M3215 5368 c-800 -21 -900 -28 -1071 -72 -125 -32 -303 -112 -499
-224 -192 -110 -376 -335 -476 -585 -49 -119 -71 -238 -134 -697 -36 -261 -77
-522 -90 -580 -64 -272 -60 -468 16 -695 100 -298 336 -552 635 -680 405 -174
893 -91 1219 207 123 112 238 286 300 454 15 38 33 75 42 82 13 9 95 12 329
12 360 0 337 6 374 -100 128 -370 479 -661 880 -731 96 -16 284 -16 380 0 304
53 589 236 755 485 187 281 239 600 157 951 -18 74 -59 335 -96 606 -67 485
-86 578 -147 723 -62 150 -188 328 -308 438 -139 126 -487 266 -847 341 -171
36 -261 44 -604 57 -418 15 -515 16 -815 8z m-872 -849 c49 -13 105 -63 128
-114 15 -33 19 -66 19 -182 l0 -143 143 0 c162 0 200 -11 254 -73 29 -33 53
-90 53 -127 0 -37 -24 -94 -53 -127 -54 -62 -92 -73 -254 -73 l-143 0 0 -142
c0 -163 -11 -201 -73 -255 -33 -29 -90 -53 -127 -53 -37 0 -94 24 -127 53 -62
54 -73 92 -73 255 l0 142 -140 0 c-154 0 -192 9 -243 58 -43 41 -60 81 -60
142 0 61 17 101 60 142 51 49 89 58 243 58 l140 0 0 143 c0 116 4 149 19 182
21 47 80 102 119 111 15 3 32 7 37 9 19 6 40 5 78 -6z m2432 -50 c90 -25 148
-102 147 -195 -1 -180 -218 -261 -344 -127 -35 37 -48 73 -48 136 0 87 48 151
136 182 48 17 59 18 109 4z m-370 -408 c81 -36 135 -131 120 -210 -19 -104
-114 -178 -216 -169 -64 7 -124 48 -156 107 -86 163 85 348 252 272z m777 9
c81 -23 138 -102 138 -190 0 -177 -205 -264 -333 -142 -43 41 -60 81 -60 142
0 61 17 101 60 142 55 52 120 68 195 48z m-385 -401 c31 -11 88 -63 106 -94
39 -72 23 -169 -37 -229 -127 -128 -336 -44 -336 134 0 83 37 142 115 183 35
19 111 22 152 6z"/>
</g>
</svg>
